# xmcd
#
# Track frame offsets: 
#        150
#        7819
#        20377
#        40170
#        55411
#        77352
#        99247
#        116507
#        135542
#        151949
#        169267
#        187917
#        209818
#        224611
#        243316
#        259352
#
# Disc length: 3832 seconds
#
# Revision: 8
# Processed by: cddbd v1.5.2PL0 Copyright (c) Steve Scherf et al.
# Submitted via: ExactAudioCopyFreeDBPlugin 1.0
#
DISCID=d20ef610
DTITLE=Nine Inch Nails - Halo 24 - Year Zero
DYEAR=2007
DGENRE=Industrial
TTITLE0=Hyperpower
TTITLE1=The Beginning Of The End
TTITLE2=Survivalism
TTITLE3=The Good Soldier
TTITLE4=Vessel
TTITLE5=Me, I'm Not
TTITLE6=Capital G
TTITLE7=My Violent Heart
TTITLE8=The Warning
TTITLE9=God Given
TTITLE10=Meet Your Master
TTITLE11=The Greater Good
TTITLE12=The Great Destroyer
TTITLE13=Another Version Of The Truth
TTITLE14=In This Twilight
TTITLE15=Zero Sum
EXTD=
EXTT0=
EXTT1=
EXTT2=
EXTT3=
EXTT4=
EXTT5=
EXTT6=
EXTT7=
EXTT8=
EXTT9=
EXTT10=
EXTT11=
EXTT12=
EXTT13=
EXTT14=
EXTT15=
PLAYORDER=
